<?xml version="1.0" encoding="UTF-8" standalone="no"?>
<!-- Created with Inkscape (http://www.inkscape.org/) -->

<svg
   width="150mm"
   height="50mm"
   viewBox="0 0 150 50"
   version="1.1"
   id="svg1"
   xml:space="preserve"
   inkscape:version="1.4.2 (f4327f4, 2025-05-13)"
   sodipodi:docname="enCaminoLogo.svg"
   xmlns:inkscape="http://www.inkscape.org/namespaces/inkscape"
   xmlns:sodipodi="http://sodipodi.sourceforge.net/DTD/sodipodi-0.dtd"
   xmlns="http://www.w3.org/2000/svg"
   xmlns:svg="http://www.w3.org/2000/svg"><sodipodi:namedview
     id="namedview1"
     pagecolor="#ffffff"
     bordercolor="#000000"
     borderopacity="0.25"
     inkscape:showpageshadow="2"
     inkscape:pageopacity="0.0"
     inkscape:pagecheckerboard="0"
     inkscape:deskcolor="#d1d1d1"
     inkscape:document-units="mm"
     inkscape:zoom="0.92599442"
     inkscape:cx="169.0075"
     inkscape:cy="-54.535966"
     inkscape:window-width="1920"
     inkscape:window-height="974"
     inkscape:window-x="-11"
     inkscape:window-y="-11"
     inkscape:window-maximized="1"
     inkscape:current-layer="layer1" /><defs
     id="defs1" /><g
     inkscape:label="Capa 1"
     inkscape:groupmode="layer"
     id="layer1"
     transform="translate(0,-247)"><path
       style="fill:#000000;stroke-width:0.712771"
       d="m 85.723211,286.43298 c -0.27572,-0.12676 -1.520255,-0.6771 -2.76563,-1.22299 l -2.264311,-0.99251 -0.743562,-0.001 c -0.786608,-10e-4 -0.941358,-0.0533 -1.050391,-0.34952 -0.105156,-0.2857 0.171209,-0.56207 0.638017,-0.63804 0.233411,-0.038 0.474819,-0.14903 0.536467,-0.24677 0.139447,-0.22111 0.02309,-0.72418 -0.186062,-0.80444 -0.08572,-0.0328 -1.094753,-0.0716 -2.242286,-0.0862 l -2.086438,-0.0263 -0.11182,0.19981 c -0.08047,0.14379 -0.06166,0.30503 0.06714,0.57516 l 0.178991,0.37534 h 0.940766 c 0.985591,0 1.290892,0.12834 1.290892,0.54269 0,0.32671 -0.243475,0.45993 -0.840535,0.45993 -0.817335,0 -1.168439,0.42701 -0.784005,0.95349 l 0.1579,0.21624 2.320812,0.0557 2.320804,0.0557 v 0.27351 0.27352 l -0.445611,0.0992 c -0.245085,0.0546 -2.049808,0.0709 -4.010499,0.0362 -6.898186,-0.12196 -11.103024,-0.79221 -14.352876,-2.28785 -2.474996,-1.13904 -4.446468,-3.18111 -5.118336,-5.3016 -0.359389,-1.13427 -0.351704,-3.02473 0.01685,-4.14263 0.673842,-2.04398 2.496568,-4.06419 5.037421,-5.58325 1.178732,-0.7047 2.066253,-1.11004 3.984955,-1.81997 1.523085,-0.56355 4.889355,-1.49791 4.99955,-1.38771 0.03371,0.0337 -0.03365,0.0938 -0.149597,0.13353 -0.832589,0.28518 -2.751311,1.1665 -3.775792,1.73431 -2.418233,1.34029 -4.510175,3.05384 -5.424434,4.44327 -1.205224,1.8316 -1.137578,3.75757 0.177785,5.06183 1.567958,1.55472 4.337317,2.28613 8.644437,2.28307 1.256067,-7.2e-4 2.985592,-0.0465 3.843391,-0.10146 0.857806,-0.0549 1.779918,-0.0668 2.049153,-0.0262 0.560416,0.0843 0.806701,0.34929 0.612085,0.65852 l -0.122696,0.19495 -1.209224,0.0319 c -0.924913,0.0244 -1.256088,0.0743 -1.408522,0.21222 -0.255321,0.23107 -0.253667,0.50771 0.0042,0.74129 l 0.203724,0.18437 h 3.288199 3.288192 l 0.208528,-0.23043 0.208521,-0.23041 -0.167365,-0.29874 -0.167373,-0.29875 -1.488166,-0.0557 -1.488167,-0.0557 -0.122647,-0.19496 c -0.221978,-0.35287 0.04776,-0.57762 0.778895,-0.64904 0.881142,-0.0861 1.046876,-0.17354 1.046876,-0.55251 0,-0.59276 -0.197723,-0.66444 -1.832464,-0.66444 -1.586336,0 -1.828287,-0.0795 -1.678504,-0.55142 0.09176,-0.28908 0.271215,-0.32426 1.856568,-0.36392 0.983041,-0.0246 1.347765,-0.075 1.503934,-0.20773 0.333891,-0.28384 1.582224,-0.77011 1.781094,-0.6938 l 0.183154,0.0702 -0.366371,0.29902 -0.366365,0.29901 0.879859,0.36224 c 0.483929,0.19924 1.328869,0.56255 1.877653,0.80738 0.548791,0.24483 1.369212,0.59267 1.823169,0.77301 l 0.825383,0.32787 1.04671,-0.41791 c 0.575698,-0.22986 1.030469,-0.4667 1.010599,-0.5263 -0.01984,-0.0596 -0.659619,-0.3677 -1.421653,-0.68462 -2.06569,-0.85909 -3.728814,-1.57548 -4.058214,-1.74806 l -0.292521,-0.15327 1.148397,-0.51438 c 1.874467,-0.83958 2.343334,-1.00087 2.728801,-0.93868 0.195235,0.0315 1.448506,0.51718 2.785068,1.07929 3.054454,1.28459 3.180726,1.34316 3.34562,1.55188 0.09983,0.12633 0.136646,1.07485 0.139258,3.58507 l 0.0033,3.4133 -0.194964,0.23146 c -0.107205,0.1273 -0.621062,0.41351 -1.141868,0.63604 -0.520807,0.22253 -1.573562,0.67009 -2.339465,0.99457 -0.765893,0.32449 -1.618124,0.69441 -1.893843,0.82208 -0.631746,0.2925 -1.037498,0.29289 -1.671037,10e-4 z m 1.559637,-0.63055 c 0.366567,-0.1728 2.916074,-1.26625 4.149755,-1.77979 l 0.974774,-0.40575 v -3.09749 c 0,-2.4034 -0.03122,-3.09762 -0.139247,-3.09809 -0.07664,-3.2e-4 -0.525955,0.15497 -0.9986,0.34511 l -0.859331,0.3457 -0.03187,1.00221 -0.03187,1.00222 -0.640574,0.26033 -0.640553,0.26031 -0.0194,-0.35436 c -0.01084,-0.1949 -0.0232,-0.60501 -0.02786,-0.91136 -0.0098,-0.65192 0.04097,-0.64833 -1.261756,-0.0894 l -0.91908,0.39433 v 3.16832 c 0,1.74259 0.03764,3.15049 0.08355,3.12867 0.04597,-0.0218 0.208885,-0.0987 0.362058,-0.17098 z m -12.810582,-2.78252 c 3.99e-4,-0.10721 0.100333,-0.34536 0.222072,-0.52918 0.121734,-0.18381 0.221672,-0.35927 0.222085,-0.3899 4.14e-4,-0.0307 -1.340267,-0.0557 -2.979292,-0.0557 -3.138274,0 -4.452019,-0.12991 -6.355589,-0.62851 -2.95276,-0.77339 -5.093829,-2.21703 -5.978076,-4.03074 -0.428127,-0.87816 -0.657612,-2.02346 -0.555894,-2.7743 l 0.06449,-0.47604 -0.141046,0.22281 c -0.241702,0.3818 -0.181565,2.44234 0.09309,3.18975 1.300462,3.53889 6.175125,5.61743 13.262915,5.65531 l 2.144508,0.0115 z m 16.542736,-5.78584 c 0.400789,-0.16459 0.712475,-0.34794 0.692638,-0.40742 -0.01984,-0.0595 -0.409406,-0.25562 -0.865738,-0.43582 -0.45632,-0.18021 -1.381134,-0.56843 -2.055116,-0.86273 -0.673983,-0.2943 -1.483451,-0.62515 -1.798805,-0.73524 l -0.573374,-0.20015 -0.698858,0.27387 c -0.384376,0.15064 -0.715908,0.32504 -0.736749,0.38756 -0.034,0.102 0.828183,0.49751 4.030596,1.84915 0.55144,0.23275 1.064289,0.42472 1.139669,0.42661 0.07534,0.002 0.46496,-0.13125 0.865737,-0.29583 z m -16.257007,0.6812 c -0.375046,-0.37504 -0.08135,-0.91208 0.428783,-0.78405 0.395701,0.0993 0.490685,0.50388 0.177785,0.75724 -0.304816,0.24682 -0.383092,0.25029 -0.606568,0.0268 z M 51.02124,272.75013 c -2.734932,-0.44723 -4.785011,-2.04144 -5.699404,-4.43205 -0.23432,-0.61261 -0.298932,-1.00789 -0.341971,-2.09215 -0.09349,-2.35537 0.412225,-3.73921 1.914695,-5.23927 1.457966,-1.45565 3.101764,-2.09103 5.407812,-2.09034 1.999722,6.2e-4 3.629877,0.56873 4.936095,1.72023 l 0.647086,0.57046 -0.312878,0.32975 c -0.172083,0.18137 -0.654089,0.63349 -1.071124,1.00472 l -0.758244,0.67495 -0.467186,-0.457 c -0.256953,-0.25134 -0.767974,-0.5974 -1.135602,-0.769 l -0.668418,-0.31201 h -1.169729 -1.169729 l -0.634606,0.29746 c -0.809539,0.37947 -1.546541,1.11697 -1.945706,1.94702 l -0.313534,0.65199 -0.0013,1.28113 -0.0013,1.28114 0.389909,0.72009 c 0.505923,0.93435 0.987163,1.4046 1.851259,1.80896 1.655802,0.77484 3.491846,0.46643 4.895633,-0.82235 l 0.452635,-0.41555 1.048923,0.97947 1.048923,0.97948 -0.60446,0.57954 c -1.200756,1.15128 -2.696895,1.75301 -4.575723,1.8403 -0.640759,0.0298 -1.415672,0.0131 -1.72203,-0.037 z m 68.44253,-0.008 c -2.09462,-0.33321 -4.10536,-1.68451 -5.05532,-3.39739 -0.62181,-1.1212 -0.88365,-2.16488 -0.88046,-3.5093 0.009,-3.40829 1.9472,-5.84439 5.36894,-6.74514 0.86828,-0.22857 3.03651,-0.22366 3.94895,0.009 1.2955,0.33027 2.48854,0.99519 3.3616,1.87354 0.92883,0.9345 1.40632,1.77722 1.74309,3.07641 l 0.24384,0.94072 -0.0576,1.17473 c -0.0711,1.44908 -0.38254,2.43224 -1.12384,3.54732 -0.90188,1.35662 -2.1752,2.26922 -3.90517,2.79887 -0.8857,0.27116 -2.67818,0.38494 -3.64402,0.2313 z m 3.12074,-3.06642 c 2.29971,-1.03204 3.08793,-4.1939 1.59417,-6.39486 -0.48495,-0.71454 -1.42959,-1.37061 -2.26044,-1.56992 -0.93345,-0.22394 -2.15245,-0.0947 -2.95465,0.313 -2.37857,1.20918 -2.98549,4.60595 -1.19641,6.69608 1.10281,1.28839 3.16456,1.69742 4.81733,0.9557 z m -104.964459,2.88211 c -0.04144,-0.0414 -0.07535,-3.07488 -0.07535,-6.74095 v -6.66561 h 5.068826 c 2.787855,0 5.106425,0 5.152379,0 0.04595,0 0.08355,0.55418 0.08355,1.23152 v 1.2315 l -3.537038,-0.009 -3.537038,-0.009 v 1.45113 1.45113 h 3.119278 3.119278 v 1.22543 1.22543 h -3.119279 -3.119278 v 1.50244 1.50244 l 3.704142,0.0294 3.704143,0.0294 v 1.28113 1.28113 l -5.244137,0.0289 c -2.884274,0.0159 -5.278042,-0.005 -5.319482,-0.0464 z m 12.735739,-6.69139 -2.36e-4,-6.77086 1.382636,0.0557 1.382638,0.0557 0.431205,0.50131 c 0.237163,0.27573 0.830766,1.00106 1.319116,1.61185 0.48835,0.6108 1.381887,1.71368 1.985637,2.45086 0.60375,0.73718 1.481046,1.81446 1.949549,2.39395 l 0.851821,1.05363 0.02918,-4.0615 0.02918,-4.0615 1.530458,0.0213 1.530461,0.0212 v 6.71863 6.71864 l -1.306663,0.0313 -1.306664,0.0313 -0.213863,-0.25417 c -0.931854,-1.10748 -1.743238,-2.09856 -3.901832,-4.76598 -1.363552,-1.68496 -2.520727,-3.07874 -2.5715,-3.09726 -0.05077,-0.0185 -0.08444,1.78619 -0.07481,4.01049 l 0.0175,4.04419 -1.531788,0.031 -1.531789,0.031 z m 39.688684,6.62532 c -0.101883,-0.12943 -0.290283,-0.54074 -1.505102,-3.28595 -0.250696,-0.56651 -0.434733,-1.04442 -0.408959,-1.062 0.194273,-0.13255 2.523431,-1.19549 2.618486,-1.19498 0.06643,3.6e-4 0.463566,0.74008 0.882554,1.64383 0.418981,0.90376 1.003817,2.15516 1.299617,2.78091 0.295807,0.62573 0.537836,1.16464 0.537836,1.19757 0,0.033 -0.74583,0.0598 -1.657401,0.0598 -1.193186,0 -1.688106,-0.039 -1.767031,-0.13925 z m 4.761263,-6.60395 v -6.74319 l 1.411365,0.0312 1.411359,0.0312 0.998813,1.67105 c 1.021537,1.70906 1.399577,2.34909 2.9117,4.92957 0.475731,0.81185 0.897428,1.47537 0.937108,1.47448 0.03971,-8.5e-4 0.215471,-0.26407 0.390649,-0.58486 0.17517,-0.32079 0.583446,-1.03445 0.907264,-1.58588 2.421071,-4.12286 3.401232,-5.80539 3.42744,-5.88351 0.01668,-0.0499 0.655973,-0.0912 1.420587,-0.0919 l 1.390196,-0.001 0.02872,6.74824 0.02873,6.74822 h -1.4491 -1.449099 l -0.0139,-1.97739 c -0.0076,-1.08757 -0.04526,-2.87976 -0.08355,-3.98265 l -0.06963,-2.00526 -0.845426,1.44825 c -0.46499,0.79652 -1.310686,2.26287 -1.879328,3.25853 l -1.033904,1.81029 -0.794334,-9.2e-4 -0.79434,-9.3e-4 -0.455646,-0.75101 c -0.250603,-0.41306 -1.102835,-1.86586 -1.893848,-3.22843 -0.791012,-1.36258 -1.463269,-2.47804 -1.493904,-2.4788 -0.03065,-7.8e-4 -0.05595,0.3621 -0.05624,0.80637 -3.13e-4,0.44426 -0.01283,2.22396 -0.02787,3.95489 l -0.02729,3.14712 h -1.448238 -1.448237 z m 18.124528,6.67194 c -0.04249,-0.0425 -0.07729,-3.0768 -0.07729,-6.74287 v -6.66561 h 1.616216 1.616205 l -0.02872,6.71202 -0.02873,6.71202 -1.510214,0.0309 c -0.830617,0.017 -1.544999,-0.004 -1.587491,-0.0464 z m 5.98963,-0.068 c -0.02927,-0.0766 -0.04022,-3.11329 -0.02439,-6.74822 l 0.02883,-6.60899 1.370985,0.001 1.37097,10e-4 0.22566,0.28687 c 0.12409,0.15778 1.38708,1.70916 2.80662,3.4475 1.41953,1.73836 2.79403,3.4239 3.05445,3.74566 l 0.47345,0.58502 v -4.00693 c 0,-2.20381 0.0207,-4.02782 0.0461,-4.05335 0.0253,-0.0256 0.72719,-0.0312 1.55966,-0.0126 l 1.51358,0.0338 v 6.73384 6.73384 h -1.32184 -1.32185 l -0.70352,-0.8505 c -0.81799,-0.9889 -1.60763,-1.96885 -4.06107,-5.0397 -0.98034,-1.22706 -1.82004,-2.23353 -1.86599,-2.23661 -0.046,-0.003 -0.0836,1.8242 -0.0836,4.06061 v 4.0662 h -1.50743 c -1.10328,0 -1.521726,-0.0373 -1.560695,-0.13924 z m -39.307242,-3.563 c 0.102424,-0.19806 0.423795,-0.91243 0.714161,-1.58748 0.290364,-0.67505 0.839515,-1.92921 1.220334,-2.78701 0.38082,-0.85781 1.033922,-2.34585 1.45134,-3.30677 0.41742,-0.96091 0.804555,-1.82864 0.8603,-1.92825 l 0.101363,-0.18112 h 1.650828 c 0.907949,0 1.688084,0.0405 1.733624,0.0901 0.04555,0.0495 0.385437,0.76688 0.755316,1.59404 0.369878,0.82717 0.927117,2.04493 1.238297,2.70612 0.31119,0.6612 0.565799,1.24485 0.565799,1.29699 0,0.0521 -0.363457,0.18316 -0.80767,0.29115 -0.44422,0.10797 -1.063904,0.28375 -1.377067,0.39059 l -0.56939,0.19423 -0.756956,-1.77232 c -0.41633,-0.97478 -0.770912,-1.75837 -0.787969,-1.74132 -0.02944,0.0295 -0.825652,1.91079 -1.604811,3.79198 l -0.359686,0.86841 -0.879114,0.44202 c -1.047597,0.52671 -2.227445,1.23718 -2.788221,1.67896 -0.521055,0.41049 -0.589635,0.40283 -0.360479,-0.0403 z"
       id="path1" /></g></svg>
